<svg xmlns="http://www.w3.org/2000/svg" viewBox="0 0 193.5 198.15">
   <defs>
      <style>.cls-1{fill:#272727;}.cls-2{fill:#fff;}.cls-3{fill:#eaeaea;}.cls-4{fill:#4f4f4f;}.cls-5{fill:#373838;}.cls-6{fill:#c6e5ec;}.cls-7{fill:#414242;}.cls-8{fill:#e0e1e1;}.cls-9{fill:#3d59a8;}</style>
   </defs>
   <title>Astronaut</title>
   <g id="Layer_2" data-name="Layer 2">
      <g id="Layer_1-2" data-name="Layer 1">
         <rect class="cls-1" x="45.79" y="158.71" width="28.33" height="35.17"/>
         <path class="cls-1" d="M59.75,193.88c0-7.27,6.44-13.17,14.37-13.17s14.38,5.9,14.38,13.17Z"/>
         <path class="cls-2" d="M59.5,102c0,13-12.29,19.3-27.48,19.3S0,111.81,0,98.83,16.81,78.5,32,78.5,59.5,89,59.5,102Z"/>
         <ellipse class="cls-2" cx="50.25" cy="49.17" rx="38.25" ry="34.17"/>
         <path class="cls-3" d="M74.12,169.71A32.9,32.9,0,0,1,58,174.46c-8.83,0-8.46-4.75-8.46-4.75v-50.2H74.12v50.2Z"/>
         <ellipse class="cls-4" cx="54.52" cy="54.06" rx="33.98" ry="29.28"/>
         <rect class="cls-2" x="27.52" y="77.29" width="48.5" height="63.29" rx="12" ry="12"/>
         <rect class="cls-5" x="27.52" y="162.97" width="28.33" height="35.17"/>
         <path class="cls-5" d="M41.56,198.15C41.56,190.87,48,185,55.94,185s14.37,5.9,14.37,13.18Z"/>
         <ellipse class="cls-2" cx="52.24" cy="137.17" rx="21.88" ry="12.33"/>
         <path class="cls-2" d="M56,176a44,44,0,0,1-18.69,4.52c-10.24,0-9.81-4.52-9.81-4.52V128.37H56V176Z"/>
         <path class="cls-4" d="M28.52,78.22c8,4.53,8,8.06,7.5,14.61S25.89,113.2,25.89,124.92s.81,13.77,4.47,14.78S50,142.58,54,142.22c2.48-.22,19.13,1.33,22.88-5.09,3.89-6.67,2.62-31,1.12-41.95S74,80.74,74,80.74s-4.43-5-7.43-2.52,2.77,37.87,2.75,44.41-1,11.62-21.75,11.53c-13.75-.06-10.65-13.29-9.65-15.69s6.65-35.62,6.15-41S28.52,78.22,28.52,78.22Z"/>
         <ellipse cx="56.5" cy="57.26" rx="31.23" ry="26.08"/>
         <ellipse class="cls-6" cx="23.27" cy="86.08" rx="7" ry="8.75" transform="translate(-61.3 57.79) rotate(-56.38)"/>
         <circle class="cls-2" cx="31.52" cy="45.49" r="3.99"/>
         <circle class="cls-2" cx="28.52" cy="54.06" r="2.99"/>
         <circle class="cls-2" cx="82.46" cy="47.95" r="1.54"/>
         <path class="cls-7" d="M34,107.88s.09-2.25-.91-2.5-4.39.7-4.39.7-1.28-8.28-4.28-7.62,1.42,5.59,1.33,6.59.75,3.91-.33,5.75-6.08,6.58-6,8.16,8.17,2.59,12.58,2.34,8-2.4,8.75-5.75c.67-3.17.84-5.67-.5-6.5C39.42,108.51,34,107.88,34,107.88Z"/>
         <g id="Flag">
            <rect class="cls-2" x="107" y="13" width="86.5" height="52.5"/>
            <rect class="cls-8" x="104.17" y="9.07" width="5.67" height="175.47"/>
            <circle class="cls-8" cx="107" cy="6.5" r="6.5"/>
            <path class="cls-9" d="M144.58,22.3a15.3,15.3,0,0,0-4.07,7.2,15.38,15.38,0,0,0-7.2,4.07,16,16,0,0,0-4.75,11.27L140,33.44a21.45,21.45,0,0,0,.28,3L128.83,47.83a15.22,15.22,0,0,0,1.63,4.75l7.33-7.33a6.34,6.34,0,0,1,2-5.16,6.61,6.61,0,0,1,1.09-1h0A17.62,17.62,0,0,0,144.58,45a14.6,14.6,0,0,0,5.84,3.66h0a3.56,3.56,0,0,1-.95,1.09,7.18,7.18,0,0,1-5.16,2L137,59.1a15.22,15.22,0,0,0,4.75,1.63l11.41-11.41a21.43,21.43,0,0,0,3,.27L144.72,61a15.44,15.44,0,0,0,11.13-4.75,17.62,17.62,0,0,0,4.21-7.2,15.16,15.16,0,0,0,7.2-4.21A16,16,0,1,0,144.58,22.3Zm16.29,16.16a6.71,6.71,0,0,1-9.64,0,6.85,6.85,0,0,1,0-9.64,6.73,6.73,0,0,1,9.64,0A7,7,0,0,1,160.87,38.46Z"/>
            <path class="cls-9" d="M139.69,49.87a9.9,9.9,0,0,1-1.35-1.9l-6.66,6.65a16.73,16.73,0,0,0,1.5,1.76,9.07,9.07,0,0,0,1.76,1.5l6.65-6.66A16.72,16.72,0,0,1,139.69,49.87Z"/>
         </g>
         <g id="Right_Arm" data-name="Right Arm">
            <path class="cls-2" d="M72.11,79.83s6.25-.75,7.5,3.75,4.25,16.75,20,17.75l3.75,9.5-3.75,8.25s-1.19,2.25-7.25,2.25c-6.44,0-14.25-3.75-15.25-5S72.11,79.83,72.11,79.83Z"/>
            <path class="cls-7" d="M108,103.43s.75-6.09-1-6.42-5-.75-6.25,3.21-3,4.71-3,11.71,2,8.75,3.5,9,6.25.25,8.75-1.25,6.25-6.75,6.25-10.75S110,102.68,108,103.43Z"/>
         </g>
      </g>
   </g>
</svg>
